<svg width="20" height="20" viewBox="0 0 20 20" fill="none" xmlns="http://www.w3.org/2000/svg">
<g id="Commodity Production">
<mask id="mask0_6001_1299" style="mask-type:alpha" maskUnits="userSpaceOnUse" x="0" y="0" width="20" height="20">
<rect id="Bounding box" width="20" height="20" fill="#D9D9D9"/>
</mask>
<g mask="url(#mask0_6001_1299)">
<path id="diamond" d="M10.0001 16.5625C9.76397 16.5625 9.5348 16.5104 9.31258 16.4062C9.09036 16.3021 8.89592 16.1528 8.72925 15.9583L2.35425 8.33333C2.22925 8.18056 2.1355 8.01389 2.073 7.83333C2.0105 7.65278 1.97925 7.46528 1.97925 7.27083C1.97925 7.14583 1.98966 7.01736 2.0105 6.88542C2.03133 6.75347 2.07647 6.63194 2.14591 6.52083L3.70841 3.41667C3.86119 3.13889 4.06605 2.91667 4.323 2.75C4.57994 2.58333 4.86814 2.5 5.18758 2.5H14.8126C15.132 2.5 15.4202 2.58333 15.6772 2.75C15.9341 2.91667 16.139 3.13889 16.2917 3.41667L17.8542 6.52083C17.9237 6.63194 17.9688 6.75347 17.9897 6.88542C18.0105 7.01736 18.0209 7.14583 18.0209 7.27083C18.0209 7.46528 17.9897 7.65278 17.9272 7.83333C17.8647 8.01389 17.7709 8.18056 17.6459 8.33333L11.2709 15.9583C11.1042 16.1528 10.9098 16.3021 10.6876 16.4062C10.4654 16.5104 10.2362 16.5625 10.0001 16.5625ZM8.02092 6.66667H11.9792L10.7292 4.16667H9.27092L8.02092 6.66667ZM9.16675 13.8958V8.33333H4.54175L9.16675 13.8958ZM10.8334 13.8958L15.4584 8.33333H10.8334V13.8958ZM13.8334 6.66667H16.0417L14.7917 4.16667H12.5834L13.8334 6.66667ZM3.95841 6.66667H6.16675L7.41675 4.16667H5.20841L3.95841 6.66667Z" fill="#74879B"/>
</g>
</g>
</svg>
