<svg width="20" height="20" viewBox="0 0 20 20" fill="none" xmlns="http://www.w3.org/2000/svg">
<g id="Deposit Type &#38; Geology">
<mask id="mask0_6001_1269" style="mask-type:alpha" maskUnits="userSpaceOnUse" x="0" y="0" width="20" height="20">
<rect id="Bounding box" width="20" height="20" fill="#D9D9D9"/>
</mask>
<g mask="url(#mask0_6001_1269)">
<path id="warehouse" d="M10.0001 4.29167L3.33341 6.95833V15.8333H5.00008V10.8333C5.00008 10.375 5.16328 9.98264 5.48967 9.65625C5.81605 9.32986 6.20842 9.16667 6.66675 9.16667H13.3334C13.7917 9.16667 14.1841 9.32986 14.5105 9.65625C14.8369 9.98264 15.0001 10.375 15.0001 10.8333V15.8333H16.6667V6.95833L10.0001 4.29167ZM1.66675 15.8333V6.95833C1.66675 6.61111 1.7605 6.29861 1.948 6.02083C2.1355 5.74306 2.38897 5.54167 2.70841 5.41667L9.37508 2.75C9.56953 2.66667 9.77786 2.625 10.0001 2.625C10.2223 2.625 10.4306 2.66667 10.6251 2.75L17.2917 5.41667C17.6112 5.54167 17.8647 5.74306 18.0522 6.02083C18.2397 6.29861 18.3334 6.61111 18.3334 6.95833V15.8333C18.3334 16.2917 18.1702 16.684 17.8438 17.0104C17.5174 17.3368 17.1251 17.5 16.6667 17.5H13.3334V10.8333H6.66675V17.5H3.33341C2.87508 17.5 2.48272 17.3368 2.15633 17.0104C1.82994 16.684 1.66675 16.2917 1.66675 15.8333ZM7.50008 17.5V15.8333H9.16675V17.5H7.50008ZM9.16675 15V13.3333H10.8334V15H9.16675ZM10.8334 17.5V15.8333H12.5001V17.5H10.8334Z" fill="#74879B"/>
</g>
</g>
</svg>
