<svg width="24" height="24" viewBox="0 0 24 24" fill="none" xmlns="http://www.w3.org/2000/svg">
<g id="Group 2189">
<g id="laptop_windows">
<mask id="mask0_6001_103" style="mask-type:alpha" maskUnits="userSpaceOnUse" x="0" y="0" width="24" height="24">
<rect id="Bounding box" width="24" height="24" fill="#D9D9D9"/>
</mask>
<g mask="url(#mask0_6001_103)">
<path id="laptop_windows_2" d="M1 20C0.716667 20 0.479167 19.9042 0.2875 19.7125C0.0958333 19.5208 0 19.2833 0 19C0 18.7167 0.0958333 18.4792 0.2875 18.2875C0.479167 18.0958 0.716667 18 1 18H4V17C3.45 17 2.97917 16.8042 2.5875 16.4125C2.19583 16.0208 2 15.55 2 15V5C2 4.45 2.19583 3.97917 2.5875 3.5875C2.97917 3.19583 3.45 3 4 3H20C20.55 3 21.0208 3.19583 21.4125 3.5875C21.8042 3.97917 22 4.45 22 5V15C22 15.55 21.8042 16.0208 21.4125 16.4125C21.0208 16.8042 20.55 17 20 17V18H23C23.2833 18 23.5208 18.0958 23.7125 18.2875C23.9042 18.4792 24 18.7167 24 19C24 19.2833 23.9042 19.5208 23.7125 19.7125C23.5208 19.9042 23.2833 20 23 20H1ZM4 15H20V5H4V15Z" fill="white"/>
</g>
</g>
</g>
</svg>
