<?xml version="1.0" encoding="utf-8"?>
<!-- Generator: Adobe Illustrator 23.0.2, SVG Export Plug-In . SVG Version: 6.00 Build 0)  -->
<svg version="1.1" id="Layer_1" xmlns="http://www.w3.org/2000/svg" xmlns:xlink="http://www.w3.org/1999/xlink" x="0px" y="0px"
	 viewBox="0 0 24 24" style="enable-background:new 0 0 24 24;" xml:space="preserve">
<style type="text/css">
	.st0{fill:#D9D9D9;filter:url(#Adobe_OpacityMaskFilter);}
	.st1{mask:url(#mask0_6001_103_1_);}
	.st2{fill:#424652;stroke:#424652;stroke-miterlimit:10;}
</style>
<g>
	<g id="laptop_windows">
		<defs>
			<filter id="Adobe_OpacityMaskFilter" filterUnits="userSpaceOnUse" x="-0.5" y="2.5" width="25" height="18">
				<feColorMatrix  type="matrix" values="1 0 0 0 0  0 1 0 0 0  0 0 1 0 0  0 0 0 1 0"/>
			</filter>
		</defs>
		<mask maskUnits="userSpaceOnUse" x="-0.5" y="2.5" width="25" height="18" id="mask0_6001_103_1_">
			<rect y="0" class="st0" width="24" height="24"/>
		</mask>
		<g class="st1">
			<path id="laptop_windows_2" class="st2" d="M1,20c-0.3,0-0.5-0.1-0.7-0.3C0.1,19.5,0,19.3,0,19s0.1-0.5,0.3-0.7
				C0.5,18.1,0.7,18,1,18h3v-1c-0.5,0-1-0.2-1.4-0.6C2.2,16,2,15.6,2,15V5c0-0.6,0.2-1,0.6-1.4S3.5,3,4,3h16c0.5,0,1,0.2,1.4,0.6
				C21.8,4,22,4.5,22,5v10c0,0.6-0.2,1-0.6,1.4C21,16.8,20.5,17,20,17v1h3c0.3,0,0.5,0.1,0.7,0.3S24,18.7,24,19s-0.1,0.5-0.3,0.7
				S23.3,20,23,20H1z M4,15h16V5H4V15z"/>
		</g>
	</g>
</g>
</svg>
