<svg width="20" height="20" viewBox="0 0 20 20" fill="none" xmlns="http://www.w3.org/2000/svg">
<g id="Mine Financials">
<mask id="mask0_6001_1329" style="mask-type:alpha" maskUnits="userSpaceOnUse" x="0" y="0" width="20" height="20">
<rect id="Bounding box" width="20" height="20" fill="#D9D9D9"/>
</mask>
<g mask="url(#mask0_6001_1329)">
<path id="browse_activity" d="M1.66659 7.5V4.16667C1.66659 3.70833 1.82978 3.31597 2.15617 2.98958C2.48256 2.66319 2.87492 2.5 3.33325 2.5H16.6666C17.1249 2.5 17.5173 2.66319 17.8437 2.98958C18.1701 3.31597 18.3333 3.70833 18.3333 4.16667V7.5H16.6666V4.16667H3.33325V7.5H1.66659ZM3.33325 15C2.87492 15 2.48256 14.8368 2.15617 14.5104C1.82978 14.184 1.66659 13.7917 1.66659 13.3333V9.16667H3.33325V13.3333H16.6666V9.16667H18.3333V13.3333C18.3333 13.7917 18.1701 14.184 17.8437 14.5104C17.5173 14.8368 17.1249 15 16.6666 15H3.33325ZM1.66659 17.5C1.43047 17.5 1.23256 17.4201 1.07284 17.2604C0.913113 17.1007 0.833252 16.9028 0.833252 16.6667C0.833252 16.4306 0.913113 16.2326 1.07284 16.0729C1.23256 15.9132 1.43047 15.8333 1.66659 15.8333H18.3333C18.5694 15.8333 18.7673 15.9132 18.927 16.0729C19.0867 16.2326 19.1666 16.4306 19.1666 16.6667C19.1666 16.9028 19.0867 17.1007 18.927 17.2604C18.7673 17.4201 18.5694 17.5 18.3333 17.5H1.66659ZM1.66659 9.16667V7.5H6.66658C6.81936 7.5 6.9652 7.54167 7.10408 7.625C7.24297 7.70833 7.34714 7.81944 7.41658 7.95833L8.39575 9.89583L10.9583 5.41667C11.0277 5.29167 11.1249 5.19097 11.2499 5.11458C11.3749 5.03819 11.5138 5 11.6666 5C11.8194 5 11.9652 5.03819 12.1041 5.11458C12.243 5.19097 12.3471 5.30556 12.4166 5.45833L13.4374 7.5H18.3333V9.16667H12.9166C12.7638 9.16667 12.618 9.12847 12.4791 9.05208C12.3402 8.97569 12.236 8.86111 12.1666 8.70833L11.6249 7.60417L9.06242 12.0833C8.99297 12.2222 8.88881 12.3264 8.74992 12.3958C8.61103 12.4653 8.4652 12.5 8.31242 12.5C8.15964 12.5 8.01728 12.4583 7.88533 12.375C7.75339 12.2917 7.6527 12.1806 7.58325 12.0417L6.14575 9.16667H1.66659Z" fill="#74879B"/>
</g>
</g>
</svg>
