<?xml version="1.0" encoding="utf-8"?>
<!-- Generator: Adobe Illustrator 23.0.2, SVG Export Plug-In . SVG Version: 6.00 Build 0)  -->
<svg version="1.1" id="Layer_1" xmlns="http://www.w3.org/2000/svg" xmlns:xlink="http://www.w3.org/1999/xlink" x="0px" y="0px"
	 viewBox="0 0 24 24" style="enable-background:new 0 0 24 24;" xml:space="preserve">
<style type="text/css">
	.st0{fill:#D9D9D9;filter:url(#Adobe_OpacityMaskFilter);}
	.st1{mask:url(#mask0_6001_96_1_);}
	.st2{fill:#FFFFFF;}
</style>
<g id="smartphone">
	<defs>
		<filter id="Adobe_OpacityMaskFilter" filterUnits="userSpaceOnUse" x="5" y="1" width="14" height="22">
			<feColorMatrix  type="matrix" values="1 0 0 0 0  0 1 0 0 0  0 0 1 0 0  0 0 0 1 0"/>
		</filter>
	</defs>
	<mask maskUnits="userSpaceOnUse" x="5" y="1" width="14" height="22" id="mask0_6001_96_1_">
		<rect y="0" class="st0" width="24" height="24"/>
	</mask>
	<g class="st1">
		<path id="smartphone_2" class="st2" d="M7,23c-0.6,0-1-0.2-1.4-0.6C5.2,22,5,21.6,5,21V3c0-0.5,0.2-1,0.6-1.4C6,1.2,6.4,1,7,1h10
			c0.5,0,1,0.2,1.4,0.6C18.8,2,19,2.5,19,3v18c0,0.5-0.2,1-0.6,1.4C18,22.8,17.5,23,17,23H7z M7,20v1h10v-1H7z M7,18h10V6H7V18z
			 M7,4h10V3H7V4z"/>
	</g>
</g>
</svg>
