<svg width="20" height="20" viewBox="0 0 20 20" fill="none" xmlns="http://www.w3.org/2000/svg">
<g id="Mine / Project Overview">
<mask id="mask0_6001_1231" style="mask-type:alpha" maskUnits="userSpaceOnUse" x="0" y="0" width="20" height="20">
<rect id="Bounding box" width="20" height="20" fill="#D9D9D9"/>
</mask>
<g mask="url(#mask0_6001_1231)">
<path id="front_loader" d="M3.31242 16.4791C2.61797 16.4791 2.03117 16.2361 1.552 15.75C1.07284 15.2639 0.833252 14.6736 0.833252 13.9791V8.97915C0.833252 8.52081 0.996446 8.12845 1.32284 7.80206C1.64922 7.47567 2.04159 7.31248 2.49992 7.31248H6.66658V3.97915C6.66658 3.74304 6.74645 3.54512 6.90617 3.3854C7.06589 3.22567 7.26381 3.14581 7.49992 3.14581H10.8333C11.5277 3.14581 12.1145 3.38887 12.5937 3.87498C13.0728 4.36109 13.3124 4.95137 13.3124 5.64581V8.97915H14.1458V7.99998C14.1458 7.77776 14.1909 7.56248 14.2812 7.35415C14.3714 7.14581 14.493 6.96526 14.6458 6.81248L15.4583 6.02081C15.6527 5.82637 15.8853 5.74998 16.1562 5.79165C16.427 5.83331 16.6319 5.97915 16.7708 6.22915L19.3333 11.0833C19.486 11.3611 19.4826 11.6354 19.3228 11.9062C19.1631 12.1771 18.9235 12.3125 18.6041 12.3125H15.8124C15.3541 12.3125 14.9617 12.1493 14.6353 11.8229C14.3089 11.4965 14.1458 11.1041 14.1458 10.6458H13.3124V12.1041C13.5902 12.3403 13.802 12.6215 13.9478 12.9479C14.0937 13.2743 14.1666 13.618 14.1666 13.9791C14.1666 14.6736 13.9235 15.2639 13.4374 15.75C12.9513 16.2361 12.361 16.4791 11.6666 16.4791C11.1388 16.4791 10.6596 16.3264 10.2291 16.0208C9.79853 15.7153 9.48603 15.3125 9.29159 14.8125H5.68742C5.49297 15.3125 5.18047 15.7153 4.74992 16.0208C4.31936 16.3264 3.8402 16.4791 3.31242 16.4791ZM3.31242 14.8125C3.54853 14.8125 3.74992 14.7326 3.91659 14.5729C4.08325 14.4132 4.16659 14.2153 4.16659 13.9791C4.16659 13.743 4.08672 13.5451 3.927 13.3854C3.76728 13.2257 3.56936 13.1458 3.33325 13.1458C3.09714 13.1458 2.89922 13.2257 2.7395 13.3854C2.57978 13.5451 2.49992 13.743 2.49992 13.9791C2.49992 14.2153 2.57631 14.4132 2.72909 14.5729C2.88186 14.7326 3.07631 14.8125 3.31242 14.8125ZM11.6666 14.8125C11.9027 14.8125 12.1006 14.7326 12.2603 14.5729C12.4201 14.4132 12.4999 14.2153 12.4999 13.9791C12.4999 13.743 12.4201 13.5451 12.2603 13.3854C12.1006 13.2257 11.9027 13.1458 11.6666 13.1458C11.4305 13.1458 11.2326 13.2257 11.0728 13.3854C10.9131 13.5451 10.8333 13.743 10.8333 13.9791C10.8333 14.2153 10.9131 14.4132 11.0728 14.5729C11.2326 14.7326 11.4305 14.8125 11.6666 14.8125ZM6.66658 13.1458V8.97915H2.49992V11.625C2.63881 11.5694 2.77422 11.5312 2.90617 11.5104C3.03811 11.4896 3.18047 11.4791 3.33325 11.4791C3.86103 11.4791 4.3402 11.6319 4.77075 11.9375C5.20131 12.243 5.50686 12.6458 5.68742 13.1458H6.66658ZM8.33325 13.1458H9.29159C9.47214 12.6458 9.78117 12.243 10.2187 11.9375C10.6562 11.6319 11.1388 11.4791 11.6666 11.4791V10.6458H8.33325V13.1458ZM17.2291 10.6458L15.8333 7.99998V10.6458H17.2291ZM8.33325 8.97915H11.6666V5.64581C11.6666 5.4097 11.5867 5.21179 11.427 5.05206C11.2673 4.89234 11.0694 4.81248 10.8333 4.81248H8.33325V8.97915ZM6.66658 13.1458V11.4791V11.625V8.97915V13.1458Z" fill="#74879B"/>
</g>
</g>
</svg>
