<svg width="20" height="20" viewBox="0 0 20 20" fill="none" xmlns="http://www.w3.org/2000/svg">
<g id="Reserves &#38; Resources">
<mask id="mask0_6001_1284" style="mask-type:alpha" maskUnits="userSpaceOnUse" x="0" y="0" width="20" height="20">
<rect id="Bounding box" width="20" height="20" fill="#D9D9D9"/>
</mask>
<g mask="url(#mask0_6001_1284)">
<path id="filter_hdr" d="M2.50003 15C2.15281 15 1.90281 14.8472 1.75003 14.5417C1.59725 14.2361 1.62503 13.9444 1.83336 13.6667L5.1667 9.22917C5.25003 9.11806 5.35073 9.03472 5.46878 8.97917C5.58684 8.92361 5.70836 8.89583 5.83336 8.89583C5.95836 8.89583 6.07989 8.92361 6.19795 8.97917C6.316 9.03472 6.4167 9.11806 6.50003 9.22917L9.58336 13.3333H15.8334L11.6667 7.79167L9.58336 10.5417L8.5417 9.16667L11 5.89583C11.0834 5.78472 11.1841 5.70139 11.3021 5.64583C11.4202 5.59028 11.5417 5.5625 11.6667 5.5625C11.7917 5.5625 11.9132 5.59028 12.0313 5.64583C12.1493 5.70139 12.25 5.78472 12.3334 5.89583L18.1667 13.6667C18.375 13.9444 18.4028 14.2361 18.25 14.5417C18.0973 14.8472 17.8473 15 17.5 15H2.50003ZM9.58336 13.3333H15.8334H9.33336H10.7604H9.58336ZM4.1667 13.3333H7.50003L5.83336 11.1042L4.1667 13.3333Z" fill="#74879B"/>
</g>
</g>
</svg>
