<svg width="24" height="24" viewBox="0 0 24 24" fill="none" xmlns="http://www.w3.org/2000/svg">
<g id="stay_primary_landscape">
<mask id="mask0_6001_88" style="mask-type:alpha" maskUnits="userSpaceOnUse" x="0" y="0" width="24" height="24">
<rect id="Bounding box" width="24" height="24" fill="#D9D9D9"/>
</mask>
<g mask="url(#mask0_6001_88)">
<path id="stay_primary_landscape_2" d="M3 19C2.45 19 1.97917 18.8042 1.5875 18.4125C1.19583 18.0208 1 17.55 1 17V7C1 6.45 1.19583 5.97917 1.5875 5.5875C1.97917 5.19583 2.45 5 3 5H21C21.55 5 22.0208 5.19583 22.4125 5.5875C22.8042 5.97917 23 6.45 23 7V17C23 17.55 22.8042 18.0208 22.4125 18.4125C22.0208 18.8042 21.55 19 21 19H3ZM4 17V7H3V17H4ZM6 17H18V7H6V17ZM20 17H21V7H20V17Z" fill="#424652"/>
</g>
</g>
</svg>
