<?xml version="1.0" encoding="utf-8"?>
<!-- Generator: Adobe Illustrator 23.0.2, SVG Export Plug-In . SVG Version: 6.00 Build 0)  -->
<svg version="1.1" id="Layer_1" xmlns="http://www.w3.org/2000/svg" xmlns:xlink="http://www.w3.org/1999/xlink" x="0px" y="0px"
	 viewBox="0 0 24 24" style="enable-background:new 0 0 24 24;" xml:space="preserve">
<style type="text/css">
	.st0{fill:#D9D9D9;filter:url(#Adobe_OpacityMaskFilter);}
	.st1{mask:url(#mask0_6001_88_1_);}
	.st2{fill:#FFFFFF;}
</style>
<g id="stay_primary_landscape">
	<defs>
		<filter id="Adobe_OpacityMaskFilter" filterUnits="userSpaceOnUse" x="1" y="5" width="22" height="14">
			<feColorMatrix  type="matrix" values="1 0 0 0 0  0 1 0 0 0  0 0 1 0 0  0 0 0 1 0"/>
		</filter>
	</defs>
	<mask maskUnits="userSpaceOnUse" x="1" y="5" width="22" height="14" id="mask0_6001_88_1_">
		<rect y="0" class="st0" width="24" height="24"/>
	</mask>
	<g class="st1">
		<path id="stay_primary_landscape_2" class="st2" d="M3,19c-0.5,0-1-0.2-1.4-0.6C1.2,18,1,17.6,1,17V7c0-0.6,0.2-1,0.6-1.4
			C2,5.2,2.5,5,3,5h18c0.5,0,1,0.2,1.4,0.6C22.8,6,23,6.5,23,7v10c0,0.5-0.2,1-0.6,1.4C22,18.8,21.5,19,21,19H3z M4,17V7H3v10H4z
			 M6,17h12V7H6V17z M20,17h1V7h-1V17z"/>
	</g>
</g>
</svg>
