<svg width="20" height="20" viewBox="0 0 20 20" fill="none" xmlns="http://www.w3.org/2000/svg">
<g id="Workforce">
<mask id="mask0_6001_1314" style="mask-type:alpha" maskUnits="userSpaceOnUse" x="0" y="0" width="20" height="20">
<rect id="Bounding box" width="20" height="20" fill="#D9D9D9"/>
</mask>
<g mask="url(#mask0_6001_1314)">
<path id="switch_account" d="M11.6667 9.16663C12.3612 9.16663 12.9515 8.92357 13.4376 8.43746C13.9237 7.95135 14.1667 7.36107 14.1667 6.66663C14.1667 5.97218 13.9237 5.3819 13.4376 4.89579C12.9515 4.40968 12.3612 4.16663 11.6667 4.16663C10.9723 4.16663 10.382 4.40968 9.89592 4.89579C9.4098 5.3819 9.16675 5.97218 9.16675 6.66663C9.16675 7.36107 9.4098 7.95135 9.89592 8.43746C10.382 8.92357 10.9723 9.16663 11.6667 9.16663ZM6.66675 13.125C7.29175 12.3888 8.04175 11.8229 8.91675 11.427C9.79175 11.0312 10.7084 10.8333 11.6667 10.8333C12.6251 10.8333 13.5417 11.0312 14.4167 11.427C15.2917 11.8229 16.0417 12.3888 16.6667 13.125V3.33329H6.66675V13.125ZM6.66675 15C6.20842 15 5.81605 14.8368 5.48967 14.5104C5.16328 14.184 5.00008 13.7916 5.00008 13.3333V3.33329C5.00008 2.87496 5.16328 2.4826 5.48967 2.15621C5.81605 1.82982 6.20842 1.66663 6.66675 1.66663H16.6667C17.1251 1.66663 17.5174 1.82982 17.8438 2.15621C18.1702 2.4826 18.3334 2.87496 18.3334 3.33329V13.3333C18.3334 13.7916 18.1702 14.184 17.8438 14.5104C17.5174 14.8368 17.1251 15 16.6667 15H6.66675ZM3.33341 18.3333C2.87508 18.3333 2.48272 18.1701 2.15633 17.8437C1.82994 17.5173 1.66675 17.125 1.66675 16.6666V5.83329C1.66675 5.59718 1.74661 5.39927 1.90633 5.23954C2.06605 5.07982 2.26397 4.99996 2.50008 4.99996C2.73619 4.99996 2.93411 5.07982 3.09383 5.23954C3.25355 5.39927 3.33341 5.59718 3.33341 5.83329V16.6666H14.1667C14.4029 16.6666 14.6008 16.7465 14.7605 16.9062C14.9202 17.0659 15.0001 17.2638 15.0001 17.5C15.0001 17.7361 14.9202 17.934 14.7605 18.0937C14.6008 18.2534 14.4029 18.3333 14.1667 18.3333H3.33341ZM11.6667 7.49996C11.4306 7.49996 11.2327 7.4201 11.073 7.26038C10.9133 7.10065 10.8334 6.90274 10.8334 6.66663C10.8334 6.43052 10.9133 6.2326 11.073 6.07288C11.2327 5.91315 11.4306 5.83329 11.6667 5.83329C11.9029 5.83329 12.1008 5.91315 12.2605 6.07288C12.4202 6.2326 12.5001 6.43052 12.5001 6.66663C12.5001 6.90274 12.4202 7.10065 12.2605 7.26038C12.1008 7.4201 11.9029 7.49996 11.6667 7.49996ZM8.91675 13.3333H14.4167C14.014 13.0555 13.5765 12.8472 13.1042 12.7083C12.632 12.5694 12.1529 12.5 11.6667 12.5C11.1806 12.5 10.7015 12.5694 10.2292 12.7083C9.75703 12.8472 9.31953 13.0555 8.91675 13.3333Z" fill="#74879B"/>
</g>
</g>
</svg>
